<?xml version="1.0" encoding="UTF-8" standalone="no"?>
<svg width="33px" height="29px" viewBox="0 0 33 29" version="1.1" xmlns="http://www.w3.org/2000/svg" xmlns:xlink="http://www.w3.org/1999/xlink" xmlns:sketch="http://www.bohemiancoding.com/sketch/ns">
    <!-- Generator: Sketch 3.5.2 (25235) - http://www.bohemiancoding.com/sketch -->
    <title>Page 1 Copy</title>
    <desc>Created with Sketch.</desc>
    <defs>
        <path id="path-1" d="M0,0.306725946 L31.3523248,0.306725946 L31.3523248,28.7783251 L0,28.7783251"></path>
    </defs>
    <g id="Page-1" stroke="none" stroke-width="1" fill="none" fill-rule="evenodd" sketch:type="MSPage">
        <g id="DashMobile" sketch:type="MSArtboardGroup" transform="translate(-238.000000, -142.000000)">
            <g id="Group-2" sketch:type="MSLayerGroup" transform="translate(21.000000, 74.000000)">
                <g id="Group" transform="translate(13.000000, 36.000000)">
                    <g id="Group-8" transform="translate(0.331190, 0.431856)">
                        <g id="Page-1-Copy" transform="translate(204.451768, 31.697865)">
                            <mask id="mask-2" sketch:name="Clip 2" fill="white">
                                <use xlink:href="#path-1"></use>
                            </mask>
                            <g id="Clip-2"></g>
                            <path d="M0,28.1477155 C5.04383762,21.5498291 11.0474743,15.8480779 18.4298071,11.2854384 C15.7536125,12.4890281 13.221492,13.8845947 10.7813955,15.3967318 C8.34379743,16.907776 5.93076688,18.4632627 4.0140836,20.7436717 C3.67097106,19.9462571 3.32952412,19.2683272 3.08634727,18.5645333 C2.40137138,16.5842931 2.51213344,14.586203 3.11216399,12.6154342 C3.6588955,10.8206138 4.61369775,9.19154205 5.93035048,7.71911179 C7.02797749,6.49147944 8.26593087,5.42558856 9.86323633,4.70613044 C11.1257572,4.1374853 12.4499051,3.72948879 13.8319325,3.43915557 C15.7082251,3.0450018 17.5999244,2.77834694 19.5241029,2.62899107 C21.3254437,2.48947084 23.1309486,2.3102438 24.9073055,2.01991057 C26.3755273,1.78021262 27.8104373,1.3725804 29.2478457,1.00137643 C29.9382347,0.822877957 30.5994759,0.556951662 31.3448296,0.306689518 C31.3448296,0.492837925 31.3639839,0.660043637 31.3419148,0.82324224 C31.1412106,2.29457965 30.9709035,3.77028845 30.7181495,5.23470448 C30.4295852,6.9089473 30.118119,8.58282583 29.7179598,10.2388545 C29.390254,11.5950786 28.9709405,12.9396457 28.4954132,14.2627201 C28.048201,15.5071094 27.5222894,16.7347418 26.9455772,17.9383315 C25.8920884,20.1371412 24.1494598,21.8376124 21.8630145,23.1286299 C20.0691688,24.1416998 18.1733055,24.9449429 16.0346817,25.1565911 C14.7217765,25.2862757 13.3772251,25.3879106 12.0697331,25.2837257 C10.440365,25.1536769 8.88136817,24.6797452 7.5097508,23.8495452 C7.19078939,23.6564754 6.9917508,23.6990965 6.75690193,23.9387944 C5.39319614,25.3296254 4.23602412,26.8446767 3.22917203,28.4475201 C3.01264469,28.79286 2.79695016,28.8460453 2.35806592,28.7072536 C1.61687621,28.4722913 0.833630225,28.3393282 0,28.1477155" id="Fill-1" fill="#FFFFFF" sketch:type="MSShapeGroup" mask="url(#mask-2)"></path>
                        </g>
                    </g>
                </g>
            </g>
        </g>
    </g>
</svg>