<?xml version="1.0" encoding="UTF-8" standalone="no"?>
<svg width="141px" height="24px" viewBox="0 0 141 24" version="1.1" xmlns="http://www.w3.org/2000/svg" xmlns:xlink="http://www.w3.org/1999/xlink" xmlns:sketch="http://www.bohemiancoding.com/sketch/ns">
    <!-- Generator: Sketch 3.5.1 (25234) - http://www.bohemiancoding.com/sketch -->
    <title>Group 11</title>
    <desc>Created with Sketch.</desc>
    <defs>
        <path id="path-1" d="M0.0716900962,22.9700465 L140.313019,22.9700465 L140.313019,0.307914729 L0.0716900962,0.307914729 L0.0716900962,22.9700465 Z"></path>
        <path id="path-3" d="M0.0716900962,22.9700465 L140.323676,22.9700465 L140.323676,0.307914729 L0.0716900962,0.307914729 L0.0716900962,22.9700465 Z"></path>
    </defs>
    <g id="Page-1" stroke="none" stroke-width="1" fill="none" fill-rule="evenodd" sketch:type="MSPage">
        <g id="Desktop-HD-Copy-6" sketch:type="MSArtboardGroup" transform="translate(-31.000000, -13.000000)">
            <g id="Group-11" sketch:type="MSLayerGroup" transform="translate(31.534884, 13.465116)">
                <g id="Page-1">
                    <g id="Group-13" transform="translate(26.157197, 4.903101)" fill="#FFFFFF" sketch:type="MSShapeGroup">
                        <path d="M29.5936717,12.950364 C28.9348979,12.950364 28.3923782,12.8317089 27.9690191,12.591457 C27.5456601,12.351205 27.2337113,11.8912942 27.0331727,11.2107438 C27.0331727,11.2107438 24.5133627,3.24516628 24.3564196,2.71170891 C24.2469468,2.34495698 24.2973237,1.98997248 24.4106715,1.81346085 C24.521113,1.63694922 24.6102413,1.48593372 24.8475936,1.29765465 C25.0839772,1.10839496 25.3843005,0.943650775 25.7446886,0.804402713 C26.1186396,0.653387209 26.5545929,0.578860078 27.0535172,0.578860078 C27.2647124,0.578860078 27.4952832,0.616123643 27.7452298,0.691631395 C27.99227,0.754391085 28.2364038,0.873046124 28.4737562,1.04955775 C28.7101397,1.22803062 28.9203661,1.47416628 29.1092792,1.78894535 C29.2952859,2.10372442 29.4328534,2.50773992 29.5200441,3.00001124 L30.0993775,6.59300349 L31.0604123,2.62247248 C31.1669787,2.0007593 31.4353322,1.54771279 31.8693479,1.26431357 C32.3023948,0.969146899 32.783881,0.821073256 33.3109001,0.821073256 C33.5560027,0.821073256 33.8020741,0.863239922 34.0481455,0.948553876 C34.294217,1.01817791 34.5170375,1.1299686 34.7146697,1.28686783 C34.9152082,1.44278643 35.0857144,1.63302674 35.2252194,1.85856938 C35.3656933,2.08411202 35.4606342,2.33907326 35.5051983,2.62247248 L36.4730146,6.59300349 L37.0329724,2.92352287 C37.1085376,2.48322442 37.2335109,2.11058876 37.4069234,1.80757713 C37.5813047,1.5045655 37.7808745,1.26627481 38.0046638,1.08878256 C38.2284532,0.899522868 38.472587,0.767139147 38.734159,0.691631395 C38.995731,0.604356202 39.2505214,0.559247674 39.4994992,0.559247674 C39.9616097,0.559247674 40.3655931,0.634755426 40.7153245,0.78675155 C41.0631183,0.925018992 41.3508475,1.08878256 41.5746369,1.27804225 C41.799395,1.46730194 41.9611821,1.65067791 42.060967,1.82718953 C42.1723773,2.00370116 42.2527864,2.21649574 42.1345946,2.71170891 L39.4626854,11.2107438 C39.2883041,11.8667787 38.9763553,12.3198252 38.5287766,12.5718446 C38.0792603,12.8248446 37.5251152,12.950364 36.8644038,12.950364 C36.2046611,12.950364 35.6505161,12.8317089 35.2009998,12.591457 C34.7524523,12.351205 34.4288781,11.8912942 34.2302771,11.2107438 L33.2198343,7.4451624 L32.2859255,11.2107438 C32.1105754,11.8667787 31.7811884,12.3198252 31.2958271,12.5718446 C30.8220912,12.8248446 30.2543832,12.950364 29.5936717,12.950364" id="Fill-1"></path>
                        <path d="M4.75344089,10.8131023 C4.75344089,11.5073814 4.58584107,12.0359357 4.24870387,12.4026876 C3.91156666,12.7674783 3.41361112,12.9498736 2.7528997,12.9498736 L2.08056285,12.9498736 C1.47119703,12.9498736 0.996492338,12.7743426 0.659355128,12.4203388 C0.324155489,12.0555481 0.155586885,11.5181682 0.155586885,10.8131023 L0.155586885,3.18976124 C0.155586885,1.47367597 0.927708597,0.615633333 2.47292081,0.615633333 L5.6883185,0.615633333 C7.54451072,0.615633333 8.94634274,1.00690078 9.89381455,1.78845504 C10.8529118,2.55922248 11.3324604,3.73204419 11.3324604,5.30790078 C11.3324604,6.8464938 10.8722875,7.99381938 9.95000409,8.75085814 C9.02772069,9.49416822 7.67529671,9.86680388 5.89370094,9.86680388 L4.75344089,9.86680388 L4.75344089,10.8131023 Z M5.65053588,6.55524961 C6.06130076,6.55524961 6.37324955,6.44836202 6.58541349,6.2336062 C6.80920284,6.01983101 6.92158191,5.71191628 6.92158191,5.30790078 C6.92158191,4.4626062 6.46722171,4.03897829 5.55753251,4.03897829 L4.67787566,4.03897829 L4.67787566,6.55524961 L5.65053588,6.55524961 Z" id="Fill-3"></path>
                        <path d="M44.895729,12.8563225 C43.3505168,12.8563225 42.5774263,12.0110279 42.5774263,10.3204388 L42.5774263,3.18936899 C42.5774263,1.47328372 43.3505168,0.616221705 44.895729,0.616221705 L51.0630149,0.616221705 C51.7992915,0.616221705 52.3350297,0.760372868 52.6711981,1.04965581 C53.0083353,1.32815194 53.1759351,1.76943101 53.1759351,2.37545426 L53.1759351,2.47057442 C53.1759351,3.11288062 53.0083353,3.56690775 52.6711981,3.83167519 C52.3350297,4.08467519 51.7992915,4.21019457 51.0630149,4.21019457 L47.1568734,4.21019457 L47.1568734,5.0241093 L49.4567692,5.0241093 C50.2172655,5.0241093 50.7578476,5.14374496 51.0823906,5.3839969 C51.4069336,5.62326822 51.5677519,6.02728372 51.5677519,6.59310155 L51.5677519,6.65095814 C51.5677519,7.2569814 51.4001521,7.6904155 51.0630149,7.95714419 C50.7394406,8.20720233 50.2027337,8.33468295 49.4567692,8.33468295 L47.1568734,8.33468295 L47.1568734,9.29863256 L51.1385801,9.29863256 C51.8729192,9.29863256 52.4086573,9.41924884 52.7457945,9.65852016 C53.081963,9.89779147 53.2495628,10.3204388 53.2495628,10.9274426 L53.2495628,11.0206016 C53.2495628,11.6638884 53.081963,12.1296829 52.7457945,12.4199465 C52.4086573,12.7102101 51.8729192,12.8563225 51.1385801,12.8563225 L44.895729,12.8563225 Z" id="Fill-5"></path>
                        <path d="M65.0236923,10.9078302 C65.2668574,11.2471248 65.4199254,11.6423147 65.1670725,11.9718031 C65.0537246,12.1179155 64.9684716,12.1924426 64.9006566,12.2512798 C64.6972117,12.4228884 64.4249831,12.591555 64.0771893,12.7425705 C63.7274579,12.8798574 63.3118491,12.950462 62.825519,12.950462 C62.4505991,12.950462 62.1212122,12.9131984 61.833483,12.8376907 C61.5612544,12.7484543 61.3045264,12.6229349 61.067174,12.4581907 C60.8443535,12.2954078 60.6195953,12.0934 60.3948372,11.8531481 C60.183642,11.6011287 59.9588839,11.3040008 59.7234691,10.9647062 L58.5454265,9.29863256 L58.3390752,9.29863256 L58.3390752,10.8127101 C58.3390752,12.2385318 57.6715823,12.950462 56.3395028,12.950462 L55.6865417,12.950462 C55.0510187,12.950462 54.5695325,12.7102101 54.2459582,12.2316674 C53.922384,11.7531248 53.7596281,11.0843419 53.7596281,10.2262992 L53.7596281,3.18936899 C53.7596281,1.47328372 54.5336874,0.616221705 56.0779308,0.616221705 L59.9462897,0.616221705 C61.7288542,0.616221705 63.0502771,0.976109302 63.9086207,1.69490388 C64.7805273,2.40095039 65.2174493,3.43550465 65.2174493,4.79660543 C65.2174493,5.62915194 65.0304738,6.34794651 64.6565228,6.95298915 C64.2825717,7.55803178 63.7226139,8.01402016 62.9747119,8.31605116 L65.0236923,10.9078302 Z M59.3873007,6.27145814 C60.2330501,6.27145814 60.6564091,5.90568682 60.6564091,5.17512481 C60.6564091,4.81033411 60.5498428,4.53183798 60.3396164,4.34257829 C60.1400467,4.1533186 59.8164725,4.05917907 59.367925,4.05917907 L58.2644788,4.05917907 L58.2644788,6.27145814 L59.3873007,6.27145814 Z" id="Fill-7"></path>
                        <path d="M70.5684369,13.1388391 C69.6083708,13.1388391 68.8100919,13.0701957 68.1745689,12.9319283 C67.5400147,12.8054283 67.0284962,12.6289167 66.6429197,12.4023934 C66.2689687,12.1621415 66.0006152,11.8905097 65.8388281,11.5884787 C65.6896352,11.272719 65.6150387,10.9393081 65.6150387,10.5853043 C65.6150387,10.3205368 65.6760722,10.0557694 65.8020142,9.79100194 C65.9386129,9.52721512 66.0878058,9.2928469 66.249593,9.09181977 C66.4239743,8.87706395 66.6884526,8.75350581 66.8705842,8.70741667 C67.1602509,8.63387016 67.4770437,8.74468023 67.763804,8.88294767 C68.0505644,9.02219574 68.3567005,9.14771512 68.6793059,9.26048643 C69.0028802,9.37521899 69.3264544,9.46837791 69.6519662,9.5458469 C69.9881346,9.60860659 70.2923331,9.63998643 70.5684369,9.63998643 C71.0286098,9.63998643 71.3531528,9.60174225 71.5381907,9.52721512 C71.726135,9.43699806 71.8201072,9.29873062 71.8201072,9.10947093 C71.8201072,8.99669961 71.7774806,8.90157946 71.6893212,8.82607171 C71.6011618,8.75056395 71.4771573,8.6946686 71.3153702,8.65642442 C71.1526143,8.60445155 70.9656387,8.56130426 70.7544436,8.5240407 C70.5413109,8.48677713 70.3058961,8.44264922 70.0443241,8.39067636 C69.5211802,8.2906531 69.0106304,8.15238566 68.5107373,7.97489341 C68.0127818,7.7993624 67.5642343,7.56401357 67.1660636,7.27473062 C66.7785496,6.98348643 66.4685384,6.61967636 66.231186,6.17741667 C65.9938337,5.73711822 65.8756419,5.19385465 65.8756419,4.55056783 C65.8756419,3.18946705 66.3377524,2.14902907 67.2600358,1.4302345 C68.1823192,0.69771124 69.557994,0.330959302 71.3899666,0.330959302 C72.249279,0.330959302 72.9787741,0.395680233 73.5765145,0.521199612 C74.1742549,0.647699612 74.6673666,0.818327519 75.0539118,1.03308333 C75.4394883,1.24685853 75.7204359,1.49887791 75.8948173,1.78914147 C76.0691986,2.07940504 76.1563892,2.39516473 76.1563892,2.73543992 C76.1563892,3.03747093 76.0972933,3.28752907 75.963601,3.6101531 C75.8299087,3.94062209 75.7117169,4.10536628 75.4753333,4.38092054 C75.2941705,4.59077326 75.1052574,4.69569961 74.8775929,4.76532364 C74.41742,4.80552907 73.6753306,4.38680426 73.0911532,4.17302907 C72.5050382,3.94552519 71.9567059,3.83177326 71.4461561,3.83177326 C70.9966399,3.83177326 70.6798471,3.87688178 70.4909341,3.96415698 C70.3184903,4.03966473 70.2303309,4.17302907 70.2303309,4.36130814 C70.2303309,4.46231202 70.2807077,4.54468411 70.3814613,4.6074438 C70.4802774,4.67118411 70.6168761,4.72707946 70.7922262,4.77807171 C70.9656387,4.81631589 71.1729588,4.85357946 71.4083735,4.89084302 C71.6457259,4.91731977 71.9005164,4.96046705 72.1746825,5.02420736 C72.8102055,5.16247481 73.3885702,5.33800581 73.912683,5.55374225 C74.4367957,5.75575 74.8843744,6.00776938 75.2583255,6.30980039 C75.6322765,6.61379264 75.9190369,6.97368023 76.1186066,7.38848256 C76.3307705,7.79249806 76.4353993,8.2710407 76.4353993,8.82607171 C76.4353993,10.2636609 75.9568195,11.342343 74.9967535,12.060157 C74.0502505,12.7799322 72.5728532,13.1388391 70.5684369,13.1388391" id="Fill-9"></path>
                        <path d="M78.8517431,12.950364 C77.5681029,12.950364 76.9257983,12.2384337 76.9257983,10.8135926 L76.9257983,2.65875543 C76.9257983,1.23391434 77.5681029,0.521003488 78.8517431,0.521003488 L79.5250487,0.521003488 C80.858097,0.521003488 81.5246211,1.23391434 81.5246211,2.65875543 L81.5246211,4.7788562 L84.2527199,4.7788562 L84.2527199,2.65875543 C84.2527199,1.23391434 84.8950244,0.521003488 86.1776959,0.521003488 L86.8510015,0.521003488 C88.1850186,0.521003488 88.8505739,1.23391434 88.8505739,2.65875543 L88.8505739,10.8135926 C88.8505739,12.2384337 88.1850186,12.950364 86.8510015,12.950364 L86.1776959,12.950364 C84.8950244,12.950364 84.2527199,12.2384337 84.2527199,10.8135926 L84.2527199,8.61798411 L81.5246211,8.61798411 L81.5246211,10.8135926 C81.5246211,12.2384337 80.858097,12.950364 79.5250487,12.950364 L78.8517431,12.950364 Z" id="Fill-11"></path>
                    </g>
                    <g id="Group-19">
                        <path d="M122.077674,13.9001926 C122.700603,13.9001926 123.186933,13.6972043 123.535696,13.2941694 C123.897053,12.8911345 124.078215,12.3370841 124.078215,11.630057 C124.078215,10.9230298 123.897053,10.3679988 123.535696,9.96496395 C123.186933,9.54918101 122.700603,9.34030891 122.077674,9.34030891 C121.44312,9.34030891 120.944196,9.54231667 120.582839,9.94437093 C120.234076,10.3375996 120.060664,10.8985143 120.060664,11.630057 C120.060664,12.3370841 120.234076,12.8911345 120.582839,13.2941694 C120.944196,13.6972043 121.44312,13.9001926 122.077674,13.9001926 M122.077674,18.0423322 C121.131171,18.0423322 120.258296,17.8844523 119.460017,17.5696733 C118.663675,17.2421461 117.978744,16.7940027 117.405224,16.2262236 C116.830734,15.6594252 116.384124,14.9837779 116.059581,14.2022236 C115.736007,13.42165 115.573251,12.5626267 115.573251,11.630057 C115.573251,10.6965066 115.736007,9.83846395 116.059581,9.05592907 C116.384124,8.27437481 116.830734,7.59970814 117.405224,7.03192907 C117.991339,6.46513062 118.67627,6.02287093 119.460017,5.70809186 C120.258296,5.39331279 121.131171,5.23445233 122.077674,5.23445233 C123.025146,5.23445233 123.890271,5.39331279 124.674987,5.70809186 C125.474235,6.02287093 126.159166,6.46513062 126.730749,7.03192907 C127.305238,7.59970814 127.753786,8.27437481 128.076391,9.05592907 C128.400934,9.83846395 128.562721,10.6965066 128.562721,11.630057 C128.562721,12.5626267 128.400934,13.42165 128.076391,14.2022236 C127.753786,14.9837779 127.305238,15.6594252 126.730749,16.2262236 C126.159166,16.7940027 125.474235,17.2421461 124.674987,17.5696733 C123.890271,17.8844523 123.025146,18.0423322 122.077674,18.0423322" id="Fill-14" fill="#FFFFFF" sketch:type="MSShapeGroup"></path>
                        <g id="Group-18">
                            <mask id="mask-2" sketch:name="Clip 17" fill="white">
                                <use xlink:href="#path-1"></use>
                            </mask>
                            <g id="Clip-17"></g>
                            <path d="M133.74485,15.7162031 C133.74485,16.4104822 133.57725,16.9390364 133.241082,17.3057884 C132.904913,17.6705791 132.405989,17.8529744 131.745277,17.8529744 L131.072941,17.8529744 C130.461637,17.8529744 129.98887,17.6774434 129.65367,17.3234395 C129.316533,16.9586488 129.146996,16.421269 129.146996,15.7162031 L129.146996,8.09286202 C129.146996,6.37677674 129.921055,5.51873411 131.465298,5.51873411 L134.679727,5.51873411 C136.537857,5.51873411 137.937752,5.91000155 138.886192,6.69155581 C139.845289,7.46232326 140.323869,8.63514496 140.323869,10.2110016 C140.323869,11.7495946 139.862728,12.8969202 138.940444,13.6539589 C138.018161,14.397269 136.666706,14.7699047 134.88511,14.7699047 L133.74485,14.7699047 L133.74485,15.7162031 Z M134.642914,11.4583504 C135.053678,11.4583504 135.364658,11.3514628 135.577791,11.136707 C135.801581,10.9229318 135.912991,10.6150171 135.912991,10.2110016 C135.912991,9.36570698 135.458631,8.94207907 134.548941,8.94207907 L133.670253,8.94207907 L133.670253,11.4583504 L134.642914,11.4583504 Z" id="Fill-16" fill="#FFFFFF" sketch:type="MSShapeGroup" mask="url(#mask-2)"></path>
                        </g>
                    </g>
                    <g id="Group-25">
                        <path d="M44.4016486,18.0419399 C43.4551456,18.0419399 42.583239,17.8850407 41.7859289,17.569281 C40.9866812,17.2417539 40.3036877,16.7936105 39.7291982,16.226812 C39.157615,15.6590329 38.7080987,14.9843663 38.3835557,14.2018314 C38.0609502,13.4212578 37.8972256,12.5622345 37.8972256,11.6296647 C37.8972256,10.6961143 38.0609502,9.83807171 38.3835557,9.05651744 C38.7080987,8.27398256 39.157615,7.60029651 39.7291982,7.03153682 C40.3153131,6.46473837 41.001213,6.02247868 41.7859289,5.70769961 C42.583239,5.39292054 43.4551456,5.23406008 44.4016486,5.23406008 C45.3491204,5.23406008 46.2142455,5.39292054 46.9989614,5.70769961 C47.7982091,6.02247868 48.4831402,6.46473837 49.0566609,7.03153682 C49.6282441,7.60029651 50.0777604,8.27398256 50.4013346,9.05651744 C50.7249089,9.83807171 50.8886335,10.6961143 50.8886335,11.6296647 C50.8886335,12.5622345 50.7249089,13.4212578 50.4013346,14.2018314 C50.0777604,14.9843663 49.6282441,15.6590329 49.0566609,16.226812 C48.4831402,16.7936105 47.7982091,17.2417539 46.9989614,17.569281 C46.2142455,17.8850407 45.3491204,18.0419399 44.4016486,18.0419399 M44.4016486,13.8998004 C45.0255462,13.8998004 45.5109075,13.696812 45.8596702,13.2937771 C46.2219958,12.8907422 46.4021898,12.3366919 46.4021898,11.6296647 C46.4021898,10.9226376 46.2219958,10.3685872 45.8596702,9.96457171 C45.5109075,9.54878876 45.0255462,9.33991667 44.4016486,9.33991667 C43.7670944,9.33991667 43.2681701,9.54290504 42.9068132,9.9449593 C42.5580506,10.3372074 42.3836693,10.8981221 42.3836693,11.6296647 C42.3836693,12.3366919 42.5580506,12.8907422 42.9068132,13.2937771 C43.2681701,13.696812 43.7670944,13.8998004 44.4016486,13.8998004" id="Fill-20" fill="#FFFFFF" sketch:type="MSShapeGroup"></path>
                        <g id="Group-24">
                            <mask id="mask-4" sketch:name="Clip 23" fill="white">
                                <use xlink:href="#path-3"></use>
                            </mask>
                            <g id="Clip-23"></g>
                            <path d="M0.0720776103,11.636431 C0.0720776103,5.3790938 5.08554042,0.307326357 11.267358,0.307326357 C17.4501445,0.307326357 22.4616697,5.3790938 22.4616697,11.636431 C22.4616697,17.8957295 17.4501445,22.9694581 11.267358,22.9694581 C5.08554042,22.9694581 0.0720776103,17.8957295 0.0720776103,11.636431 L0.0720776103,11.636431 Z M21.3039715,11.636431 C21.3039715,17.2485202 16.8107463,21.7985977 11.267358,21.7985977 C5.72203222,21.7985977 1.22977579,17.2485202 1.22977579,11.636431 C1.22977579,6.0263031 5.72203222,1.47818682 11.267358,1.47818682 C16.8107463,1.47818682 21.3039715,6.0263031 21.3039715,11.636431 L21.3039715,11.636431 Z M2.21309265,11.636431 C2.21309265,16.6993729 6.26745822,20.8022876 11.267358,20.8022876 C16.2653203,20.8022876 20.3196859,16.6993729 20.3196859,11.636431 C20.3196859,6.57643101 16.2653203,2.47253566 11.267358,2.47253566 C6.26745822,2.47253566 2.21309265,6.57643101 2.21309265,11.636431 L2.21309265,11.636431 Z M5.073915,10.5302915 C4.90825275,10.3527992 4.9179406,10.0713612 5.09232192,9.90465581 L8.58866729,6.58329535 C8.76401739,6.4156093 9.03818356,6.42639612 9.20093946,6.60486899 L9.97693631,7.45114419 C10.1396922,7.62961705 10.1309731,7.91105504 9.95465425,8.07776047 L6.46121524,11.3981403 C6.28586514,11.5658264 6.01266775,11.5560202 5.8470055,11.3785279 L5.073915,10.5302915 Z M6.35852402,14.538086 C6.6975988,14.2566481 7.20911733,14.2125202 7.57241173,14.6655667 C8.44528709,15.754055 9.77736658,16.4483341 11.267358,16.4483341 C12.750568,16.4483341 14.0787724,15.7609194 14.9506789,14.6812566 C15.3178485,14.2301713 15.8274294,14.2772411 16.1665042,14.5576984 C16.5075166,14.8410977 16.8194654,15.0823302 16.2885711,15.7893574 C15.1541238,17.3014736 13.2882437,18.1987411 11.267358,18.1987411 C9.23387815,18.1987411 7.35734144,17.2955899 6.23064439,15.7668031 C5.69878138,15.0450667 6.01654289,14.8175628 6.35852402,14.538086 L6.35852402,14.538086 Z M17.0955691,10.5302915 C17.258325,10.3527992 17.2505747,10.0713612 17.0732871,9.90465581 L13.5779105,6.58329535 C13.4025604,6.4156093 13.1264566,6.42639612 12.9637007,6.60486899 L12.1886727,7.45114419 C12.024948,7.62961705 12.0356046,7.91105504 12.2099859,8.07776047 L15.7073001,11.3981403 C15.8826502,11.5658264 16.1587539,11.5560202 16.3215098,11.3785279 L17.0955691,10.5302915 Z" id="Fill-22" fill="#FFFFFF" sketch:type="MSShapeGroup" mask="url(#mask-4)"></path>
                        </g>
                    </g>
                </g>
            </g>
        </g>
    </g>
</svg>