<?xml version="1.0" encoding="UTF-8" standalone="no"?>
<svg width="111px" height="113px" viewBox="0 0 111 113" version="1.1" xmlns="http://www.w3.org/2000/svg" xmlns:xlink="http://www.w3.org/1999/xlink" xmlns:sketch="http://www.bohemiancoding.com/sketch/ns">
    <!-- Generator: Sketch 3.5.1 (25234) - http://www.bohemiancoding.com/sketch -->
    <title>Group 10</title>
    <desc>Created with Sketch.</desc>
    <defs>
        <filter x="-50%" y="-50%" width="200%" height="200%" filterUnits="objectBoundingBox" id="filter-1">
            <feOffset dx="0" dy="1" in="SourceAlpha" result="shadowOffsetOuter1"></feOffset>
            <feGaussianBlur stdDeviation="1.5" in="shadowOffsetOuter1" result="shadowBlurOuter1"></feGaussianBlur>
            <feColorMatrix values="0 0 0 0 0   0 0 0 0 0   0 0 0 0 0  0 0 0 0.35 0" in="shadowBlurOuter1" type="matrix" result="shadowMatrixOuter1"></feColorMatrix>
            <feMerge>
                <feMergeNode in="shadowMatrixOuter1"></feMergeNode>
                <feMergeNode in="SourceGraphic"></feMergeNode>
            </feMerge>
        </filter>
    </defs>
    <g id="Page-1" stroke="none" stroke-width="1" fill="none" fill-rule="evenodd" sketch:type="MSPage">
        <g id="Desktop-HD-Copy-6" sketch:type="MSArtboardGroup" transform="translate(-541.000000, -115.000000)">
            <g id="Group-10" sketch:type="MSLayerGroup" transform="translate(543.953488, 117.441860)">
                <g id="Group-7" filter="url(#filter-1)" fill="#79BADF" sketch:type="MSShapeGroup">
                    <ellipse id="Oval-1-Copy" cx="52.3255814" cy="53.1104651" rx="52.3255814" ry="53.1104651"></ellipse>
                </g>
                <g id="Group-7-Copy-2" transform="translate(18.043304, 17.790698)" sketch:type="MSShapeGroup">
                    <path d="M33.8748872,55.2099147 C22.5649007,55.2006786 13.5903412,46.0280529 13.6544339,34.5427946 C13.7177353,23.1370469 22.674887,14.1049701 33.9120768,14.1158125 C45.2232502,14.1266548 54.2009748,23.30169 54.1341127,34.7817278 C54.0676462,46.187074 45.1104946,55.2191508 33.8748872,55.2099147" id="Fill-1" fill="#FAD760"></path>
                    <g id="Group-3" transform="translate(21.136442, 23.546512)" fill="#79BADE">
                        <path d="M10.3352064,3.25971637 L3.28192896,9.922245 C2.92804948,10.2579532 2.37583255,10.2390723 2.04271095,9.88176548 L0.480608121,8.17976612 C0.14634911,7.82489088 0.166680475,7.25946493 0.518711658,6.92504401 L7.57724968,0.259940712 C7.93098699,-0.0754814658 8.48476787,-0.0544550009 8.81376632,0.303996162 L10.3792814,2.00241959 C10.7079955,2.36044164 10.6913607,2.92458027 10.3352064,3.25971637" id="Path"></path>
                        <path d="M12.9846818,20.0564289 C15.9789374,20.0564289 18.6619666,18.675405 20.4215538,16.5089639 C21.1627245,15.6035386 22.1916622,15.6992305 22.8761041,16.2625109 C23.5646691,16.8300824 24.1947992,17.3151214 23.1232083,18.7339072 C20.8315934,21.7670105 17.0650303,23.5677055 12.9846818,23.5677055 C8.87959444,23.5677055 5.09213132,21.7559967 2.81658241,18.6884214 C1.74243234,17.2395978 2.3849319,16.782451 3.07449217,16.2228896 C3.76007148,15.6580358 4.79171052,15.5696388 5.52605667,16.4779249 C7.2886296,18.6618165 9.97606637,20.0564289 12.9846818,20.0564289" id="Path"></path>
                        <path d="M24.7512815,8.17976612 L23.1890365,9.88176548 C22.8601802,10.2390723 22.3031292,10.2579532 21.9492497,9.922245 L14.8891478,3.25971637 C14.5352683,2.92458027 14.5140839,2.36044164 14.8447884,2.00241959 L16.4108722,0.303996162 C16.739302,-0.0544550009 17.2967795,-0.0754814658 17.6508011,0.259940712 L24.7062113,6.92504401 C25.0642139,7.25946493 25.0804221,7.82489088 24.7512815,8.17976612" id="Path"></path>
                    </g>
                    <path d="M15.2899449,49.9290491 C16.4922763,51.216879 17.5632573,52.36416 18.7185083,53.6013922 C16.9377601,55.428127 15.1079533,57.4138828 13.1547087,59.2655147 C12.096388,60.2686326 10.8390635,60.1465558 9.81001966,59.0956513 C8.78097587,58.0447468 8.67613289,56.775389 9.66047005,55.6971778 C11.4772209,53.7074063 13.4178053,51.8336881 15.2899449,49.9290491" id="Fill-3" fill="#FAD760"></path>
                    <path d="M18.8713022,15.773005 C17.5914265,17.099787 16.5390403,18.1908484 15.4118793,19.3594125 C13.4570521,17.4130104 11.4424843,15.5276467 9.57865295,13.5001278 C8.65405651,12.4941989 8.8324874,11.2505415 9.77963498,10.2610769 C10.7944359,9.20053475 12.045826,9.03629327 13.1191808,10.0321829 C15.0937896,11.8645396 16.9437738,13.8346343 18.8713022,15.773005" id="Fill-5" fill="#FAD760"></path>
                    <path d="M52.4936167,19.4277996 C51.2058283,18.1367572 50.135243,17.0633648 48.9226251,15.8474156 C50.8434277,13.8877618 52.7068634,11.8530146 54.7210356,9.98612304 C55.7943904,8.99103651 57.0691228,9.23037128 58.0518775,10.311795 C59.0500618,11.4096831 59.043336,12.6505295 58.0522731,13.719103 C56.2604471,15.6502455 54.3815817,17.4982634 52.4936167,19.4277996" id="Fill-7" fill="#FAD760"></path>
                    <path d="M48.896711,53.553445 C50.1481011,52.2897092 51.2519197,51.1745537 52.4593944,49.9549904 C54.3449856,51.8560153 56.2946695,53.7213006 58.1213112,55.7026391 C59.1151436,56.7804488 59.0008054,58.0441846 57.971366,59.0966954 C56.9387615,60.1520172 55.6838107,60.2580312 54.6223249,59.2705745 C52.6520681,57.4382178 50.8032708,55.4713357 48.896711,53.553445" id="Fill-9" fill="#FAD760"></path>
                    <path d="M36.3851844,10.4929024 L31.4607291,10.4929024 C31.4607291,7.65983721 31.3590512,4.88861357 31.5038532,2.13104327 C31.5750673,0.76932477 32.6151889,0.0645722012 33.9904123,0.119988643 C35.4823478,0.180223905 36.3143659,1.08535911 36.3614463,2.52618659 C36.4457164,5.11228718 36.3851844,7.7032066 36.3851844,10.4929024" id="Fill-11" fill="#FAD760"></path>
                    <path d="M10.1024327,32.2051042 L10.1024327,37.0974122 C7.27404588,37.0974122 4.47454036,37.2580396 1.71736766,36.9837684 C1.0293603,36.9155018 -0.0139263135,35.4353206 0.000316507125,34.6193336 C0.0141636939,33.8045512 1.08672722,32.3882194 1.80203332,32.3155356 C4.50381727,32.0408628 7.24912095,32.2051042 10.1024327,32.2051042" id="Fill-13" fill="#FAD760"></path>
                    <path d="M57.7146391,37.1619041 L57.7146391,32.1985185 C60.5192879,32.1985185 63.2523269,32.0912998 65.9711231,32.2442973 C67.313509,32.3193906 67.9845041,33.3980034 67.9227852,34.7890364 C67.8606707,36.1961321 67.0630727,37.0823936 65.7202912,37.1329912 C63.1122725,37.231777 60.4979237,37.1619041 57.7146391,37.1619041" id="Fill-15" fill="#FAD760"></path>
                    <path d="M31.4368724,58.8008599 L36.2616279,58.8008599 C36.2616279,61.7198607 36.4155295,64.6236019 36.1441246,67.48558 C36.0828014,68.1337115 34.5034308,69.1328137 33.6947551,69.0665549 C32.8947834,69.0010992 31.6172815,67.8510073 31.5401329,67.0747756 C31.2722887,64.3931017 31.4368724,61.6672553 31.4368724,58.8008599" id="Fill-17" fill="#FAD760"></path>
                </g>
            </g>
        </g>
    </g>
</svg>