<?xml version="1.0" encoding="UTF-8" standalone="no"?>
<svg width="16px" height="16px" viewBox="0 0 16 16" version="1.1" xmlns="http://www.w3.org/2000/svg" xmlns:xlink="http://www.w3.org/1999/xlink" xmlns:sketch="http://www.bohemiancoding.com/sketch/ns">
    <!-- Generator: Sketch 3.5.1 (25234) - http://www.bohemiancoding.com/sketch -->
    <title> copy</title>
    <desc>Created with Sketch.</desc>
    <defs></defs>
    <g id="Page-1" stroke="none" stroke-width="1" fill="none" fill-rule="evenodd" sketch:type="MSPage">
        <g id="Desktop-HD-Copy-6" sketch:type="MSArtboardGroup" transform="translate(-44.000000, -507.000000)" fill="#9FC959">
            <path d="M59.7865708,515.301521 C59.7865708,515.643041 59.6626881,515.944377 59.414919,516.205539 L58.6615708,516.958887 C58.4071052,517.213353 58.1024208,517.340583 57.7475083,517.340583 C57.3858994,517.340583 57.0845631,517.213353 56.8434904,516.958887 L53.8903654,514.015807 L53.8903654,521.087235 C53.8903654,521.435451 53.7648087,521.718373 53.5136913,521.936008 C53.262574,522.153643 52.9595637,522.262458 52.6046512,522.262458 L51.3189369,522.262458 C50.9640244,522.262458 50.661014,522.153643 50.4098967,521.936008 C50.1587794,521.718373 50.0332226,521.435451 50.0332226,521.087235 L50.0332226,514.015807 L47.0800976,516.958887 C46.839025,517.213353 46.5376887,517.340583 46.1760797,517.340583 C45.8144708,517.340583 45.5131345,517.213353 45.2720619,516.958887 L44.5187137,516.205539 C44.2642481,515.951073 44.1370172,515.649737 44.1370172,515.301521 C44.1370172,514.946608 44.2642481,514.641924 44.5187137,514.387458 L51.0577762,507.848396 C51.2921523,507.600627 51.5934886,507.476744 51.961794,507.476744 C52.323403,507.476744 52.6280874,507.600627 52.8758565,507.848396 L59.414919,514.387458 C59.6626881,514.64862 59.7865708,514.953305 59.7865708,515.301521 L59.7865708,515.301521 Z" id="-copy" sketch:type="MSShapeGroup"></path>
        </g>
    </g>
</svg>